<svg xmlns="http://www.w3.org/2000/svg" viewBox="115 340 140 160">
  <defs>
    <style>
      .cls-1 {
        opacity: 0.44;
      }

      .cls-2 {
        fill: #fff;
      }
    </style>
  </defs>
  <g>
    <path class="cls-2" d="M201.71,453.37v34.44H146a9.53,9.53,0,0,1-9.53-9.53V436c2,1.32,4,2.56,6.06,3.74a103.76,103.76,0,0,0,51.59,13.64Z" />
    <path class="cls-2" d="M225.81,453.38v46.39c-3.73,0-6.78-4.7-6.78-8.43,0,3.73-3,8.43-6.76,8.43V453.38Z" />
    <path class="cls-2" d="M210.66,386.62a39.31,39.31,0,0,0,.68,7.24,27.38,27.38,0,0,1,37.93-7.4v.18c-10.67,0-23.45,8.64-23.45,19.3v37.59l0,0c-35.53-35.52-40.94-81-40.94-81a1.39,1.39,0,0,1,.15-.19,51,51,0,0,1,64.28-14.4v.1A38.6,38.6,0,0,0,210.66,386.62Z" />
    <path class="cls-2" d="M175.33,384.81a51.18,51.18,0,0,0-.66,8.27c0,1.76.09,3.5.26,5.2a38.37,38.37,0,0,0-4-13.74,38.65,38.65,0,0,0-16.37-16.63h0a12.9,12.9,0,0,0,10.7-6,11.15,11.15,0,0,1,8.73-5,13.89,13.89,0,0,1,10.84,5.17c0,.13,0,.27,0,.39A50.75,50.75,0,0,0,175.33,384.81Z" />
    <path class="cls-2" d="M225.82,443.58H194.16a94.28,94.28,0,0,1-69.85-30.86c-2.1-2.3-4.08-4.72-6-7.23H176.3a0,0,0,0,0,0,0C176.73,406.45,186.36,432.82,225.82,443.58Z" />
  </g>
</svg>